User Type,Username,Date,Text
,PokeyReese,2009-12-13T00:34Z,I've never needed subs for a movie. How do I go about finding english subtitles for this movie?
,wanaryytel,2010-10-27T04:55Z,"Quality is just sad. :(

   General
      Format : AVI
      Format/Info : Audio Video Interleave
      File size : 1.37 GiB
      Duration : 1h 52mn
      Overall bit rate : 1 746 Kbps
      Writing application : VirtualDubMod 1.5.10.2 (build 2540/release)
      Writing library : VirtualDubMod build 2540/release
   Video #0
      ID : 0
      Format : MPEG-4 Visual
      Format profile : AdvancedSimple@L5
      Format settings, BVOP : Yes
      Format settings, QPel : No
      Format settings, GMC : No warppoints
      Format settings, Matrix : Default (H.263)
      Codec ID : XVID
      Codec ID/Hint : XviD
      Duration : 1h 52mn
      Bit rate : 1 286 Kbps
      Width : 512 pixels
      Height : 384 pixels
      Display aspect ratio : 4:3
      Frame rate : 29.970 fps
      Resolution : 24 bits
      Colorimetry : 4:2:0
      Scan type : Progressive
      Bits/(Pixel*Frame) : 0.218
      Stream size : 1.01 GiB (74%)
      Writing library : XviD 1.2.0.dev47 (UTC 2006-11-01)
   Audio #1
      ID : 1
      Format : AC-3
      Format/Info : Audio Coding 3
      Codec ID : 2000
      Duration : 1h 52mn
      Bit rate mode : Constant
      Bit rate : 448 Kbps
      Channel(s) : 2 channels
      Channel positions : L R
      Sampling rate : 48.0 KHz
      Stream size : 359 MiB (26%)
      Alignment : Split accross interleaves
      Interleave, duration : 33 ms (1.00 video frame)
      Interleave, preload duration : 500 ms"
